<svg xmlns="http://www.w3.org/2000/svg" width="256" height="256" viewBox="0 0 256 256">
  <rect width="256" height="256" fill="#30353a"/>
  <g opacity="0.2" stroke="#202429" stroke-width="9">
    <path d="M0 28L256 12"/>
    <path d="M0 80L256 66"/>
    <path d="M0 132L256 118"/>
    <path d="M0 184L256 170"/>
    <path d="M0 236L256 222"/>
  </g>
  <g opacity="0.18" fill="#4b525a">
    <circle cx="20" cy="30" r="7"/>
    <circle cx="68" cy="62" r="5"/>
    <circle cx="124" cy="34" r="6"/>
    <circle cx="174" cy="82" r="7"/>
    <circle cx="228" cy="44" r="6"/>
    <circle cx="34" cy="128" r="6"/>
    <circle cx="88" cy="158" r="7"/>
    <circle cx="152" cy="136" r="5"/>
    <circle cx="210" cy="168" r="7"/>
    <circle cx="50" cy="220" r="6"/>
    <circle cx="116" cy="208" r="7"/>
    <circle cx="176" cy="228" r="5"/>
    <circle cx="232" cy="214" r="7"/>
  </g>
  <g opacity="0.12" fill="#626b75">
    <rect x="12" y="14" width="12" height="6" rx="2"/>
    <rect x="74" y="92" width="10" height="5" rx="2"/>
    <rect x="144" y="56" width="14" height="6" rx="2"/>
    <rect x="196" y="122" width="10" height="5" rx="2"/>
    <rect x="26" y="184" width="11" height="6" rx="2"/>
    <rect x="118" y="170" width="14" height="5" rx="2"/>
    <rect x="204" y="210" width="12" height="6" rx="2"/>
  </g>
</svg>
